# xmcd
#
# Track frame offsets:
#	150
#	13540
#	27435
#	37502
#	57335
#	74505
#	87332
#	103945
#	115032
#	132607
#	148097
#	162270
#	175955
#	188535
#
# Disc length: 2763 seconds
#
# Revision: 1
# Processed by: cddbd v1.5.2PL0 Copyright (c) Steve Scherf et al.
# Submitted via: audiograbber 1.83.01
#
DISCID=be0ac90e
DTITLE=Declan Nerney - Part Of The Journey
DYEAR=1995
DGENRE=
TTITLE0=Part Of The Journey
TTITLE1=With This Ring
TTITLE2=In Your Arms
TTITLE3=I Really Don't Want To Know
TTITLE4=Anna From Fermanagh
TTITLE5=You Gotta Get Up In The Morning
TTITLE6=Lovely Derry On The Banks Of The Foyle
TTITLE7=Honky Tonk Girl
TTITLE8=Blue Side Of Lonesome
TTITLE9=Born To Hang
TTITLE10=Half As Much
TTITLE11=Cottage On The Borderline
TTITLE12=Tonight We Just Might Fall In Love Again
TTITLE13=Love Me
EXTD=
EXTT0=
EXTT1=
EXTT2=
EXTT3=
EXTT4=
EXTT5=
EXTT6=
EXTT7=
EXTT8=
EXTT9=
EXTT10=
EXTT11=
EXTT12=
EXTT13=
PLAYORDER=
